<svg width="16" height="15" viewBox="0 0 16 15" fill="none" xmlns="http://www.w3.org/2000/svg">
<path d="M16 13.5877C16 13.9717 15.8682 14.2646 15.6047 14.4665C15.3412 14.6683 15.0177 14.7692 14.6343 14.7692H1.36567C0.98233 14.7692 0.65888 14.6658 0.395328 14.4591C0.131776 14.2523 0 13.9618 0 13.5877C0 13.2923 0.0862534 12.992 0.258761 12.6868L6.8859 0.812308C7.20215 0.270769 7.57593 0 8.00719 0C8.43845 0 8.80263 0.270769 9.09973 0.812308L15.7413 12.7015C15.9137 13.0166 16 13.312 16 13.5877ZM8.9991 6.04062V3.88431H7.0009V6.04062C7.0009 6.17846 7.01049 6.30892 7.02965 6.432C7.04881 6.55508 7.07518 6.69292 7.10871 6.84554C7.14225 6.99815 7.16862 7.12862 7.18778 7.23692L7.56155 9.62954H8.4097L8.79785 7.23692C8.81701 7.13846 8.84576 7.01046 8.8841 6.85292C8.92244 6.69538 8.95119 6.55508 8.97035 6.432C8.98951 6.30892 8.9991 6.17846 8.9991 6.04062ZM8.9991 11.7563C8.9991 11.4708 8.90087 11.2295 8.70441 11.0326C8.50794 10.8357 8.27075 10.7372 7.99281 10.7372C7.72447 10.7372 7.49206 10.8357 7.29559 11.0326C7.09913 11.2295 7.0009 11.4708 7.0009 11.7563C7.0009 12.0418 7.09913 12.2855 7.29559 12.4874C7.49206 12.6892 7.72447 12.7902 7.99281 12.7902C8.27075 12.7902 8.50794 12.6892 8.70441 12.4874C8.90087 12.2855 8.9991 12.0418 8.9991 11.7563Z" fill="#EB5757"/>
</svg>
